# xmcd
#
# Track frame offsets: 
#        182
#        21425
#        45042
#        71445
#
# Disc length: 1109 seconds
#
# Revision: 1
# Processed by: cddbd v1.5.2PL0 Copyright (c) Steve Scherf et al.
# Submitted via: ExactAudioCopyFreeDBPlugin 1.0
#
DISCID=27045304
DTITLE=Various Artist - Gimme Shelter (ROCK)
DYEAR=1900
DGENRE=
TTITLE0=Thunder - Gimme Shelter
TTITLE1=Little Angels - Gimme Shelter
TTITLE2=Hawkwind and Samantha Fox - Gimme Shelter
TTITLE3=Interview
EXTD=Charity Cover Single Released In UK
EXTT0=
EXTT1=
EXTT2=
EXTT3=
PLAYORDER=
